<svg xmlns="http://www.w3.org/2000/svg" xmlns:xlink="http://www.w3.org/1999/xlink" version="1.1" x="0px" y="0px" viewBox="0 0 100 125"><g fill="peru" transform="rotate(90)"><path d="M85.097,24.515c-2.984-6.482-9.926-11.478-10.178-11.654c-4.633-4.059-9.444-6.118-14.302-6.118   c-7.656,0-12.995,5.063-14.935,7.24c-3.648,4.09-4.393,8.283-5.181,12.724c-0.343,1.933-0.698,3.932-1.313,5.958   c-0.943,3.107-3.263,4.715-6.2,6.75c-2.959,2.05-6.642,4.601-9.814,9.558c-6.299,9.84-6.876,19.646-1.817,30.86   c3.367,7.451,9.425,11.39,17.52,11.39c3.452,0,7.164-0.731,11.036-2.175c13.841-5.169,22.607-16.336,25.734-20.897   c1.149-1.677,2.276-3.219,3.367-4.711c3.389-4.637,6.066-8.299,6.03-11.547c-0.013-1.053,0.194-2.994,0.457-5.451   C86.228,39.64,87.325,29.362,85.097,24.515z M84.441,46.327c-0.266,2.492-0.476,4.461-0.463,5.577   c0.032,2.893-2.553,6.429-5.825,10.905c-1.095,1.498-2.227,3.047-3.385,4.736c-3.069,4.479-11.673,15.439-25.228,20.503   c-3.751,1.398-7.339,2.107-10.663,2.107c-7.645,0-13.367-3.722-16.548-10.763c-4.965-11.004-4.427-20.209,1.743-29.847   c3.058-4.777,6.493-7.157,9.524-9.256c2.985-2.068,5.562-3.854,6.614-7.316c0.633-2.086,0.993-4.117,1.342-6.081   c0.761-4.287,1.48-8.336,4.927-12.2c1.844-2.069,6.914-6.883,14.139-6.883c4.592,0,9.167,1.969,13.641,5.886   c0.07,0.05,7.007,5.044,9.87,11.265C86.234,29.541,85.155,39.643,84.441,46.327z"/><path d="M75.128,16.819c0.006,0,0.013,0.001,0.019,0.001c0.095,0,0.184-0.051,0.231-0.134c0.051-0.089,0.046-0.199-0.012-0.283   c-1.024-1.501-3.209-3.423-6.268-4.312c-0.104-0.031-0.213,0.004-0.28,0.086c-0.067,0.083-0.08,0.197-0.03,0.292   C68.873,12.634,70.933,16.524,75.128,16.819z M74.562,16.215c-2.581-0.436-4.231-2.386-4.925-3.391   C71.89,13.632,73.578,15.005,74.562,16.215z"/><path d="M21.657,73.836c-0.096-0.062-0.217-0.056-0.307,0.014c-0.089,0.068-0.125,0.186-0.091,0.292   c0.158,0.492,0.228,0.883,0.296,1.262c0.168,0.931,0.312,1.734,1.581,3.497c0.05,0.07,0.131,0.111,0.216,0.111   c0.014,0,0.027-0.001,0.041-0.003c0.099-0.016,0.181-0.085,0.213-0.181C24.609,75.773,21.687,73.855,21.657,73.836z M23.236,78.11   c-0.893-1.339-1.016-2.022-1.156-2.802c-0.031-0.171-0.062-0.344-0.101-0.527C22.62,75.395,23.5,76.55,23.236,78.11z"/><path d="M50.915,23.573c-0.809-0.699-1.811-0.896-2.22-0.426c-0.418,0.487-0.099,1.404,0.743,2.133   c0.503,0.435,1.082,0.694,1.55,0.694c0.282,0,0.513-0.093,0.667-0.272C52.072,25.215,51.755,24.3,50.915,23.573z M51.251,25.354   c-0.062,0.072-0.178,0.087-0.264,0.087c-0.338,0-0.799-0.216-1.201-0.564c-0.656-0.569-0.845-1.199-0.688-1.382   c0.062-0.071,0.176-0.086,0.261-0.086c0.339,0,0.802,0.217,1.207,0.567C51.22,24.542,51.408,25.171,51.251,25.354z"/><path d="M63.899,67.31c-0.573-0.213-1.358,0.427-1.734,1.442c-0.386,1.04-0.226,1.995,0.374,2.223   c0.081,0.03,0.167,0.045,0.256,0.045c0.556,0,1.152-0.598,1.486-1.49c0.244-0.663,0.271-1.344,0.069-1.777   C64.249,67.533,64.093,67.381,63.899,67.31z M63.781,69.344c-0.294,0.785-0.834,1.213-1.056,1.132   c-0.226-0.086-0.361-0.728-0.061-1.538c0.261-0.704,0.713-1.14,0.982-1.14c0.024,0,0.046,0.004,0.067,0.012   c0.061,0.022,0.111,0.078,0.152,0.167C63.983,68.226,64.001,68.746,63.781,69.344z"/><path d="M46.859,78.344c-0.022-0.003-2.232-0.291-4.574-0.291c-1.358,0-2.502,0.096-3.402,0.284   c-0.114,0.023-0.199,0.118-0.21,0.234c-0.012,0.116,0.053,0.226,0.16,0.271c1.417,0.606,2.372,0.843,3.407,0.843   c1.174,0,2.465-0.305,4.646-0.817c0.125-0.03,0.211-0.145,0.205-0.273C47.084,78.467,46.987,78.361,46.859,78.344z M39.937,78.708   c0.682-0.081,1.468-0.122,2.349-0.122c1.065,0,2.104,0.061,2.914,0.126C42.82,79.246,41.795,79.377,39.937,78.708z"/><path d="M72.603,30.055c-0.135-0.036-0.274,0.04-0.32,0.171s0.019,0.277,0.147,0.332c0.935,0.398,1.581,0.952,2.206,1.487   c0.944,0.808,1.836,1.571,3.491,1.571c0.509,0,1.058-0.071,1.677-0.217c0.055-0.013,0.104-0.042,0.141-0.084   c0.028-0.033,0.117-0.155,0.06-0.343C79.792,32.281,77.302,31.3,72.603,30.055z M78.127,33.083c-1.458,0-2.239-0.668-3.145-1.443   c-0.213-0.183-0.437-0.374-0.678-0.563c3.493,1.003,4.64,1.605,5.014,1.882C78.886,33.042,78.493,33.083,78.127,33.083z"/><path d="M41.843,35.197c-0.136-0.036-0.275,0.039-0.32,0.171c-0.045,0.132,0.019,0.277,0.147,0.332   c0.934,0.398,1.58,0.952,2.205,1.487c0.942,0.807,1.833,1.57,3.483,1.57c0,0,0,0,0,0c0.509,0,1.059-0.071,1.68-0.218   c0.055-0.013,0.104-0.042,0.141-0.085c0.028-0.033,0.117-0.155,0.059-0.344C49.024,37.418,46.536,36.438,41.843,35.197z    M47.358,38.223L47.358,38.223c-1.454,0-2.233-0.668-3.137-1.441c-0.214-0.183-0.438-0.375-0.68-0.565   c3.497,1.002,4.64,1.605,5.012,1.881C48.12,38.182,47.726,38.223,47.358,38.223z"/><path d="M59.616,54.751c-0.546,0-1.32,0.673-1.817,1.249c-0.74,0.854-1.274,1.9-0.802,2.311c0.063,0.056,0.177,0.122,0.35,0.122   c0.55,0,1.324-0.672,1.819-1.248c0.5-0.578,1.02-1.389,0.979-1.931c-0.015-0.201-0.104-0.317-0.176-0.379   C59.877,54.794,59.754,54.751,59.616,54.751z M58.763,56.837c-0.627,0.729-1.201,1.059-1.412,1.062   c-0.027-0.157,0.16-0.753,0.852-1.551c0.634-0.734,1.208-1.064,1.407-1.085C59.66,55.38,59.488,55.998,58.763,56.837z"/><path d="M73.119,47.667c-0.544,0-1.296,0.644-1.817,1.246c-0.499,0.578-1.019,1.387-0.979,1.927   c0.016,0.202,0.106,0.319,0.179,0.382c0.064,0.056,0.177,0.122,0.349,0.122c0.544,0,1.318-0.672,1.816-1.248   c0.628-0.724,1.013-1.48,0.98-1.928c-0.015-0.2-0.104-0.317-0.178-0.38C73.377,47.708,73.256,47.667,73.119,47.667z M72.265,49.747   c-0.631,0.729-1.201,1.059-1.41,1.063c-0.027-0.155,0.159-0.75,0.85-1.549c0.635-0.732,1.21-1.062,1.406-1.084   C73.159,48.29,72.979,48.923,72.265,49.747z"/><path d="M36.57,61.952c-0.548,0-1.322,0.67-1.818,1.244c-0.739,0.854-1.273,1.901-0.798,2.312c0.064,0.055,0.177,0.121,0.349,0.121   c0.548,0,1.324-0.672,1.821-1.247c0.625-0.724,1.008-1.481,0.975-1.93c-0.015-0.199-0.104-0.315-0.176-0.378   C36.83,61.994,36.708,61.952,36.57,61.952z M35.721,64.033c-0.63,0.729-1.204,1.059-1.414,1.062   c-0.028-0.156,0.158-0.752,0.849-1.552c0.632-0.73,1.208-1.059,1.407-1.081C36.611,62.576,36.432,63.21,35.721,64.033z"/><path d="M25.56,49.787c-0.544,0-1.319,0.671-1.816,1.246c-0.737,0.854-1.27,1.898-0.8,2.306c0.093,0.081,0.215,0.124,0.353,0.124   c0.544,0,1.293-0.645,1.813-1.247c0.499-0.576,1.017-1.384,0.978-1.924c-0.015-0.202-0.105-0.32-0.178-0.382   C25.845,49.854,25.732,49.787,25.56,49.787z M24.707,51.867c-0.63,0.73-1.201,1.06-1.408,1.062   c-0.026-0.158,0.162-0.754,0.848-1.548c0.634-0.732,1.208-1.062,1.404-1.082C25.602,50.414,25.433,51.027,24.707,51.867z"/><path d="M76.885,59.973c-0.42,0-1.184,0.832-1.491,1.188c-0.85,0.98-1.136,1.606-0.848,1.861c0.048,0.041,0.159,0.08,0.223,0.08   c0.416,0,1.182-0.831,1.493-1.189c0.301-0.349,0.996-1.205,0.964-1.62c-0.007-0.097-0.049-0.182-0.114-0.237   C77.062,60.013,76.949,59.973,76.885,59.973z M75.858,61.564c-0.214,0.246-0.408,0.445-0.573,0.6   c0.129-0.187,0.298-0.407,0.512-0.654c0.216-0.251,0.414-0.453,0.58-0.608C76.249,61.085,76.079,61.309,75.858,61.564z"/></g></svg>
